<?xml version="1.0" encoding="UTF-8" standalone="no"?>
<svg xmlns="http://www.w3.org/2000/svg"
     width="395mm" height="327mm"
     viewBox="0 0 1120 928">
     
  <style>
    /* Default color */
    .logo-path { fill: #000000; }

    /* Dark mode override */
    @media (prefers-color-scheme: dark) {
      .logo-path { fill: #ffffff; }
    }
  </style>
  
  <path id="Selection" 
        class="logo-path"
        d="M 206.00,764.00
           C 206.00,764.00 192.00,764.82 192.00,764.82
             192.00,764.82 185.00,764.09 185.00,764.09
             172.11,763.21 159.68,762.97 147.00,759.87
             142.91,758.87 132.25,755.97 129.00,754.00
             124.08,751.01 115.80,741.64 111.92,737.00
             101.14,724.08 91.60,710.20 82.59,696.00
             82.59,696.00 69.22,672.00 69.22,672.00
             48.11,632.00 33.74,588.65 26.56,544.00
             26.56,544.00 20.91,494.00 20.91,494.00
             20.91,494.00 20.00,484.00 20.00,484.00
             20.00,484.00 20.00,445.00 20.00,445.00
             20.00,445.00 23.72,405.00 23.72,405.00
             27.85,371.85 34.46,342.56 45.69,311.00
             52.77,291.11 61.66,271.56 71.69,253.00
             87.14,224.42 104.26,196.88 125.29,172.00
             146.04,147.47 175.28,119.18 201.00,99.89
             244.41,67.34 303.49,38.71 356.00,24.73
             374.03,19.93 408.72,12.92 427.00,11.17
             427.00,11.17 446.00,9.91 446.00,9.91
             446.00,9.91 458.00,9.00 458.00,9.00
             458.00,9.00 501.00,9.00 501.00,9.00
             501.00,9.00 511.00,9.91 511.00,9.91
             533.08,11.43 548.22,13.20 570.00,17.55
             637.95,31.12 700.70,58.71 755.83,100.98
             774.18,115.04 790.68,130.68 807.00,147.00
             827.31,167.31 844.08,188.12 860.00,212.00
             865.38,220.07 875.26,234.75 877.00,244.00
             877.00,244.00 748.00,290.00 748.00,290.00
             748.00,290.00 716.00,301.00 716.00,301.00
             721.61,308.66 733.17,315.46 741.00,321.15
             741.00,321.15 796.00,360.42 796.00,360.42
             796.00,360.42 817.00,375.47 817.00,375.47
             818.83,376.86 822.80,379.57 822.80,382.09
             822.80,384.92 817.02,389.98 815.00,392.00
             808.53,398.47 794.98,412.00 788.00,417.00
             781.32,410.93 780.45,411.69 775.00,407.47
             775.00,407.47 763.00,396.90 763.00,396.90
             760.81,395.27 756.19,391.77 753.32,393.21
             748.39,395.68 755.15,402.84 757.05,405.00
             760.64,409.09 768.05,421.16 771.09,422.83
             773.10,423.92 778.25,424.33 781.00,425.00
             775.12,435.23 755.69,458.85 747.00,466.91
             742.32,471.25 733.96,478.02 728.00,480.00
             728.00,463.47 722.90,457.31 715.76,443.00
             709.67,430.79 710.40,429.14 701.37,417.00
             697.49,411.79 692.24,402.92 686.00,401.00
             686.11,411.82 691.24,418.53 695.74,428.00
             695.74,428.00 701.64,443.00 701.64,443.00
             701.64,443.00 710.65,458.00 710.65,458.00
             710.65,458.00 715.47,472.00 715.47,472.00
             718.58,479.24 723.58,482.31 723.76,486.00
             723.92,489.31 719.07,494.67 716.91,497.00
             709.09,505.44 700.63,513.68 692.00,521.28
             692.00,521.28 637.00,568.25 637.00,568.25
             623.95,579.03 598.24,599.00 584.00,607.00
             584.00,600.34 584.75,596.20 581.73,590.00
             578.80,584.01 572.18,576.89 570.94,572.00
             569.60,566.72 575.19,555.80 573.77,548.02
             572.23,539.53 562.96,542.77 556.04,538.12
             552.13,535.50 549.88,530.72 545.00,529.61
             539.11,528.28 534.84,534.33 529.00,536.09
             525.37,537.26 520.36,535.85 516.00,536.09
             516.00,536.09 499.00,538.87 499.00,538.87
             495.35,538.95 492.28,537.79 489.00,536.33
             473.68,529.53 470.22,518.90 460.84,506.00
             456.85,500.51 450.22,493.82 449.21,487.00
             448.05,479.15 452.94,472.24 453.83,464.00
             455.13,451.85 450.08,449.08 453.04,439.00
             455.03,432.24 464.40,415.10 469.32,410.38
             472.63,407.20 477.34,405.74 480.73,401.90
             485.73,396.22 485.08,385.51 494.44,376.47
             502.04,369.12 504.70,372.54 512.00,369.47
             512.00,369.47 536.00,359.44 536.00,359.44
             544.30,356.98 552.50,356.65 561.00,355.83
             561.00,355.83 575.94,354.48 575.94,354.48
             585.22,356.05 573.33,367.01 579.31,373.79
             582.30,377.16 587.10,378.09 591.00,379.98
             597.89,383.32 611.87,391.49 618.83,393.47
             627.80,396.03 620.08,382.01 629.04,381.23
             632.34,380.95 640.21,383.95 644.00,384.87
             651.97,386.81 660.97,387.97 669.17,388.42
             669.17,388.42 677.00,388.42 677.00,388.42
             680.95,388.04 686.84,384.87 688.30,380.91
             689.37,378.00 688.76,373.46 689.32,370.00
             689.86,366.69 692.28,362.09 690.06,359.35
             686.80,355.01 680.92,358.65 677.00,359.35
             672.12,360.48 670.48,358.71 666.00,358.00
             663.06,357.53 657.83,357.63 655.39,355.99
             653.63,354.81 649.21,347.07 648.76,345.00
             648.07,341.82 651.03,336.93 644.98,334.76
             639.39,332.75 636.84,337.88 635.00,342.00
             635.00,342.00 630.00,341.00 630.00,341.00
             632.46,345.50 635.44,346.58 636.04,349.15
             636.97,353.17 630.35,356.93 626.32,353.63
             620.28,348.69 620.46,340.98 616.92,335.01
             614.55,331.03 610.46,328.63 607.00,325.71
             602.83,322.18 591.68,312.19 587.00,310.58
             585.08,309.93 583.00,310.03 581.00,310.00
             583.84,323.38 602.79,326.86 605.80,341.00
             606.80,345.70 601.87,353.34 597.00,353.99
             595.34,354.21 594.40,353.54 593.00,353.00
             593.97,350.78 596.29,347.16 596.30,345.00
             596.32,337.58 583.74,331.84 579.18,326.96
             576.23,323.80 572.45,316.81 568.00,316.13
             566.63,315.92 565.30,316.32 564.15,317.05
             559.21,320.16 562.07,325.62 563.00,330.00
             558.12,326.86 558.73,321.96 553.41,320.98
             548.03,319.99 542.59,324.29 539.30,328.02
             530.02,338.54 531.72,344.54 523.81,354.00
             521.64,356.59 518.38,360.58 514.96,361.26
             510.97,362.05 497.25,357.61 494.39,355.27
             493.04,354.16 492.17,352.64 491.81,350.98
             490.57,347.50 492.14,341.51 491.81,337.00
             491.82,333.34 489.66,325.58 492.60,322.93
             497.79,318.26 517.10,327.07 521.40,315.96
             525.70,304.83 511.50,297.71 509.00,291.00
             509.00,291.00 526.83,283.10 526.83,283.10
             526.83,283.10 534.01,277.66 534.01,277.66
             537.55,275.36 539.43,275.37 542.87,271.89
             546.66,268.06 554.89,254.91 559.04,253.08
             563.01,251.32 564.40,255.06 572.00,254.44
             576.22,254.09 577.39,252.36 581.00,252.30
             586.60,252.21 585.81,254.35 597.00,253.34
             597.00,253.34 602.00,253.34 602.00,253.34
             613.00,250.60 605.19,236.16 619.00,241.00
             619.00,241.00 621.00,234.00 621.00,234.00
             621.00,234.00 614.00,234.00 614.00,234.00
             623.23,221.51 630.46,228.95 641.00,222.00
             634.29,220.37 629.85,221.42 627.10,220.69
             623.51,219.72 623.17,216.96 619.90,216.42
             617.59,216.03 615.01,217.42 613.00,217.32
             607.74,217.04 602.77,211.16 603.20,206.00
             603.96,196.97 611.60,194.70 613.00,186.00
             610.72,186.13 609.13,186.11 607.00,187.17
             600.33,190.51 590.96,204.43 591.13,212.00
             591.28,218.18 595.42,223.08 595.27,227.00
             595.07,232.46 584.99,245.54 579.02,245.39
             569.55,245.15 577.12,230.28 569.79,228.87
             568.45,228.62 567.12,229.23 566.02,229.91
             559.96,233.60 561.58,238.10 561.00,244.00
             555.80,240.66 557.35,238.81 560.00,234.00
             556.54,232.82 555.82,232.34 553.00,229.93
             549.50,226.95 544.37,223.24 545.47,218.00
             546.27,214.22 550.34,210.84 552.82,208.00
             552.82,208.00 563.10,194.10 563.10,194.10
             566.99,190.21 570.37,189.42 573.20,185.82
             577.03,180.93 575.51,176.14 577.70,171.00
             580.20,165.12 589.28,159.59 595.00,157.04
             598.68,155.40 606.11,152.30 610.00,152.35
             615.58,152.43 627.21,159.35 633.00,161.91
             633.00,161.91 648.00,167.72 648.00,167.72
             648.00,167.72 654.00,172.46 654.00,172.46
             654.00,172.46 661.00,176.52 661.00,176.52
             662.58,177.57 664.93,179.66 666.89,179.67
             670.78,179.68 670.03,174.28 674.14,173.31
             676.32,172.94 678.99,174.23 682.00,173.31
             684.93,172.25 687.20,169.54 690.00,168.17
             693.20,166.61 695.45,167.38 699.00,166.00
             701.71,164.95 704.19,162.76 707.00,162.40
             709.47,162.09 715.50,164.45 719.00,165.00
             714.65,158.92 709.58,156.43 708.00,149.00
             714.65,149.71 713.68,150.73 719.00,152.93
             727.83,156.59 728.07,153.80 737.00,163.00
             737.52,157.52 734.58,155.85 731.00,152.00
             725.28,145.84 721.89,141.35 714.96,136.14
             692.24,119.06 652.75,97.95 626.00,87.95
             597.40,77.25 567.37,68.29 537.00,64.29
             537.00,64.29 518.00,61.96 518.00,61.96
             518.00,61.96 508.00,61.96 508.00,61.96
             508.00,61.96 493.00,60.04 493.00,60.04
             493.00,60.04 471.00,60.04 471.00,60.04
             471.00,60.04 450.00,62.04 450.00,62.04
             450.00,62.04 441.00,62.04 441.00,62.04
             402.12,65.87 357.77,77.08 322.00,92.72
             322.00,92.72 299.00,103.11 299.00,103.11
             299.00,103.11 286.58,110.17 286.58,110.17
             286.58,110.17 281.00,112.51 281.00,112.51
             281.00,112.51 265.00,121.15 265.00,121.15
             258.23,125.02 247.43,129.93 244.00,137.00
             244.00,137.00 255.00,138.00 255.00,138.00
             254.51,139.72 254.44,140.36 253.49,142.00
             252.47,143.77 241.21,157.14 239.79,158.16
             237.87,159.55 233.38,161.04 231.00,161.16
             231.00,161.16 214.00,159.50 214.00,159.50
             209.53,160.31 203.00,165.77 207.45,168.98
             211.95,172.22 218.21,166.81 222.00,165.13
             225.03,163.79 227.78,164.01 231.00,164.00
             234.01,173.42 240.94,165.86 246.00,162.73
             254.95,157.20 251.37,155.77 258.02,150.55
             267.29,143.28 272.06,143.18 276.00,141.12
             276.00,141.12 282.00,137.00 282.00,137.00
             280.34,140.22 278.58,143.18 275.83,145.61
             273.65,147.54 270.13,149.05 268.69,151.21
             266.68,154.22 268.72,156.71 266.41,159.00
             263.52,161.87 259.70,160.02 257.10,166.04
             256.40,167.67 254.08,173.21 254.52,174.69
             255.11,176.73 257.85,176.94 258.96,178.58
             260.29,180.54 258.22,191.92 256.56,193.69
             252.09,198.42 248.81,192.86 241.00,195.05
             230.43,198.01 226.79,202.82 219.00,209.58
             215.88,212.28 211.01,216.33 209.17,220.00
             203.10,232.15 218.54,235.24 223.89,243.09
             227.86,249.54 224.38,252.81 223.89,258.00
             224.00,260.44 224.51,264.47 228.00,263.37
             232.42,261.98 233.37,254.32 236.46,249.00
             242.79,238.09 248.57,238.93 252.55,231.00
             254.32,227.47 253.64,225.19 254.69,222.00
             254.69,222.00 258.44,214.00 258.44,214.00
             259.71,210.62 259.73,207.25 263.14,205.16
             264.57,204.28 267.31,203.71 269.00,203.27
             276.29,201.39 281.23,201.10 284.64,209.00
             285.27,210.47 286.36,213.46 286.42,215.00
             286.95,219.27 281.96,226.16 286.42,227.66
             292.68,229.86 293.45,214.16 298.96,215.17
             302.05,215.73 304.37,220.30 305.20,223.00
             307.23,229.58 308.06,244.65 308.43,246.00
             309.53,250.04 312.31,251.83 314.57,255.00
             316.79,258.11 317.64,261.43 315.82,264.98
             311.80,272.88 299.00,275.65 291.00,276.04
             279.49,276.59 263.34,280.73 258.00,292.00
             266.39,288.39 270.60,284.72 280.00,287.00
             280.00,287.00 280.00,289.00 280.00,289.00
             276.08,292.72 275.39,294.86 274.00,300.00
             274.00,300.00 293.00,298.00 293.00,298.00
             292.52,299.46 292.60,300.06 291.41,301.32
             288.91,303.95 281.07,305.68 274.51,311.00
             272.43,312.69 269.32,315.97 266.29,315.05
             263.78,314.29 264.07,311.05 264.00,309.00
             256.13,310.23 243.48,318.18 238.21,324.04
             238.21,324.04 232.61,331.79 232.61,331.79
             228.92,335.76 225.15,335.53 220.33,341.04
             220.33,341.04 207.47,362.00 207.47,362.00
             207.47,362.00 184.80,386.00 184.80,386.00
             178.65,394.96 185.66,401.69 183.81,415.00
             183.43,417.74 181.26,423.34 177.48,421.60
             175.73,420.79 175.04,417.70 174.67,416.00
             173.58,411.05 174.08,403.73 172.00,399.04
             168.58,391.32 157.04,392.92 150.00,393.00
             146.98,393.04 133.11,394.08 131.04,395.17
             127.52,397.04 125.82,400.95 123.47,404.00
             121.16,407.00 118.22,409.50 116.65,413.00
             114.50,417.78 113.88,431.79 114.96,437.00
             116.03,442.19 118.08,454.71 123.04,456.92
             129.54,459.82 133.32,449.84 136.10,446.18
             139.88,441.22 144.10,440.15 150.00,440.00
             149.98,442.39 150.05,444.68 149.35,447.00
             147.43,453.42 143.64,453.86 144.02,464.00
             144.08,465.65 144.16,467.39 145.02,468.85
             148.72,475.10 159.18,468.61 161.22,477.05
             162.05,479.56 161.13,483.25 161.22,486.00
             160.82,493.17 164.57,508.51 173.00,509.81
             174.25,510.01 183.00,509.68 184.00,509.21
             191.64,505.61 194.31,496.16 208.00,495.00
             208.00,495.00 204.00,510.00 204.00,510.00
             209.49,505.07 208.61,500.72 211.50,499.13
             214.77,497.31 218.53,501.74 224.00,502.79
             225.80,503.14 231.31,503.77 233.00,503.50
             235.90,503.05 237.91,501.13 240.99,502.30
             243.76,503.36 247.22,507.89 249.32,510.17
             255.55,516.92 258.30,520.48 266.00,525.79
             276.99,533.38 286.72,534.15 292.72,541.09
             296.42,545.37 295.26,548.09 297.31,552.00
             299.45,556.07 309.94,567.32 314.00,569.59
             314.00,569.59 330.00,577.21 330.00,577.21
             330.00,577.21 339.00,578.85 339.00,578.85
             339.00,578.85 351.00,584.99 351.00,584.99
             358.25,587.71 368.74,592.68 370.61,601.00
             373.05,611.88 362.91,622.19 358.33,631.00
             355.84,635.78 355.07,643.59 355.00,649.00
             354.87,660.53 354.78,675.03 345.81,683.79
             340.90,688.59 333.12,689.51 329.01,696.04
             326.15,700.56 326.70,705.24 325.62,710.00
             325.62,710.00 320.98,723.00 320.98,723.00
             319.90,726.41 318.66,731.73 314.89,733.04
             311.90,734.08 307.76,731.52 302.00,731.00
             304.05,733.78 308.47,737.33 307.34,740.97
             306.24,744.55 302.17,745.79 299.00,746.82
             299.00,746.82 273.00,753.87 273.00,753.87
             269.35,754.74 256.34,757.63 253.65,755.36
             250.41,752.64 247.29,737.67 246.13,733.00
             246.13,733.00 239.30,701.00 239.30,701.00
             237.98,692.05 236.50,678.39 233.96,670.00
             231.20,660.90 227.47,659.61 221.00,653.83
             221.00,653.83 202.69,635.82 202.69,635.82
             197.32,629.95 184.36,610.31 180.15,603.00
             177.26,597.97 173.41,592.62 172.04,587.00
             170.03,578.72 173.19,577.81 173.62,574.00
             174.02,570.45 171.74,570.45 172.02,561.00
             172.26,552.59 175.95,551.58 179.64,545.00
             182.30,540.25 185.38,528.19 183.15,523.04
             181.00,518.08 177.74,519.12 174.00,518.09
             171.63,517.44 161.94,513.06 160.18,511.57
             153.44,505.87 152.50,496.03 143.00,488.92
             143.00,488.92 121.00,474.12 121.00,474.12
             114.93,470.99 99.48,463.32 95.28,458.79
             90.69,453.85 91.39,445.29 90.41,439.00
             90.41,439.00 83.00,392.00 83.00,392.00
             83.00,392.00 80.00,392.00 80.00,392.00
             80.00,392.00 79.39,403.00 79.39,403.00
             79.39,403.00 83.00,423.00 83.00,423.00
             79.03,421.59 78.61,419.37 76.00,416.00
             72.72,429.47 71.98,459.42 72.00,474.00
             72.00,474.00 73.00,495.00 73.00,495.00
             73.00,495.00 74.72,510.00 74.72,510.00
             74.72,510.00 75.29,518.00 75.29,518.00
             75.29,518.00 82.12,555.00 82.12,555.00
             93.93,604.84 111.84,646.66 141.02,689.00
             152.66,705.88 165.72,722.33 180.04,737.01
             180.04,737.01 196.00,752.91 196.00,752.91
             200.43,757.04 203.28,758.27 206.00,764.00 Z
           M 403.00,94.00
           C 414.81,93.46 416.27,91.07 426.00,87.91
             434.61,85.12 455.35,82.54 463.93,85.00
             463.60,86.49 462.84,87.92 463.93,89.42
             465.07,91.17 477.38,93.46 480.00,93.82
             481.96,94.09 485.81,93.92 486.55,96.31
             487.16,98.30 485.29,100.19 484.07,101.49
             480.82,104.94 477.56,108.13 474.76,112.00
             472.87,114.61 470.80,117.70 470.64,121.00
             470.50,123.69 471.89,126.62 471.23,128.90
             470.01,133.11 463.92,133.68 460.85,138.18
             457.66,142.88 460.36,147.74 457.40,151.79
             457.40,151.79 451.58,157.21 451.58,157.21
             449.68,159.63 449.88,161.90 446.86,164.35
             443.71,166.89 439.50,166.94 436.00,168.76
             436.00,168.76 428.00,173.48 428.00,173.48
             428.00,173.48 414.00,179.04 414.00,179.04
             414.00,179.04 403.00,186.75 403.00,186.75
             397.99,190.03 396.22,188.91 391.90,193.87
             383.07,204.01 384.09,203.23 376.64,214.00
             374.62,216.92 371.98,220.42 368.00,220.24
             356.60,219.74 355.91,199.99 356.00,192.00
             356.05,187.64 356.85,181.01 358.48,177.00
             361.76,168.90 367.10,167.10 369.90,162.00
             371.66,158.79 371.17,157.33 370.95,154.00
             370.42,146.09 383.22,125.84 369.00,123.11
             369.00,123.11 362.00,123.11 362.00,123.11
             360.47,122.99 357.67,123.07 356.31,122.40
             352.52,120.53 354.85,116.07 357.23,114.09
             363.49,108.87 380.06,101.74 384.00,97.00
             373.92,97.92 353.34,108.76 345.00,114.78
             345.00,114.78 337.00,121.37 337.00,121.37
             337.00,121.37 320.00,131.16 320.00,131.16
             313.04,133.79 302.30,129.16 295.00,128.56
             290.98,128.24 289.49,129.86 286.00,130.31
             282.86,130.71 272.10,129.88 269.00,129.00
             272.24,120.04 282.14,122.00 290.00,122.00
             290.69,123.54 291.17,125.51 293.34,125.34
             295.75,125.16 299.35,121.15 302.99,120.48
             308.66,119.44 309.85,126.33 316.81,121.44
             326.48,114.64 311.39,111.00 321.06,103.65
             321.06,103.65 338.09,96.54 338.09,96.54
             338.09,96.54 347.00,95.39 347.00,95.39
             359.26,93.23 366.15,91.06 379.00,91.00
             389.75,90.95 389.91,88.04 403.00,88.00
             403.00,88.00 403.00,94.00 403.00,94.00 Z
           M 551.00,105.00
           C 557.26,103.22 565.06,104.99 572.00,105.00
             574.34,105.00 581.60,104.50 581.66,108.12
             581.73,111.56 575.43,112.65 573.22,114.13
             570.61,115.88 570.01,118.22 569.00,121.00
             565.73,120.04 555.63,113.54 553.56,110.87
             552.22,109.15 551.66,107.04 551.00,105.00 Z
           M 304.00,114.00
           C 304.00,114.00 305.00,114.00 305.00,114.00
             305.00,114.00 304.00,115.00 304.00,115.00
             304.00,115.00 304.00,114.00 304.00,114.00 Z
           M 684.00,152.00
           C 671.56,155.21 666.35,136.61 667.64,133.21
             668.74,130.31 673.25,128.82 676.00,128.02
             679.19,127.15 679.86,127.26 683.00,128.02
             683.00,128.02 678.24,139.00 678.24,139.00
             678.24,139.00 684.00,152.00 684.00,152.00 Z
           M 278.00,146.00
           C 283.11,141.97 286.29,138.59 293.00,136.79
             298.61,135.29 299.96,137.88 305.00,137.86
             305.00,137.86 318.00,136.00 318.00,136.00
             317.86,144.06 322.32,142.39 324.96,148.01
             326.95,152.25 323.41,154.33 324.28,158.00
             324.67,159.66 326.70,162.23 327.55,164.00
             327.55,164.00 329.92,171.83 329.92,171.83
             330.73,173.56 332.45,175.24 332.76,177.09
             333.94,184.07 322.93,187.42 317.63,182.44
             314.71,179.69 315.83,177.67 310.00,173.00
             311.56,182.50 318.39,186.41 312.15,197.00
             310.67,199.50 306.93,204.11 303.91,204.58
             299.19,205.31 286.64,196.57 285.49,192.00
             284.68,188.79 287.87,186.28 290.01,184.44
             290.01,184.44 306.05,171.67 306.05,171.67
             308.18,167.87 301.81,157.27 294.00,160.01
             281.45,164.40 286.08,173.89 272.00,184.00
             272.00,184.00 260.00,176.00 260.00,176.00
             266.26,171.13 277.89,161.71 279.03,153.43
             279.31,151.43 278.40,148.07 278.00,146.00 Z
           M 242.00,138.00
           C 236.74,139.10 231.70,142.30 229.00,147.00
             236.74,146.83 241.69,146.85 242.00,138.00 Z
           M 268.00,139.00
           C 268.00,139.00 273.00,139.00 273.00,139.00
             273.00,139.00 268.00,139.00 268.00,139.00 Z
           M 279.00,165.00
           C 274.79,166.88 274.54,167.44 274.00,172.00
             278.36,170.64 279.34,169.63 279.00,165.00 Z
           M 639.00,179.00
           C 640.12,182.35 640.93,183.96 643.47,186.54
             644.95,188.05 647.20,189.78 649.00,190.90
             653.80,193.89 660.07,193.09 659.35,186.01
             658.86,181.20 652.50,177.12 648.00,177.34
             645.73,177.45 641.28,178.42 639.00,179.00 Z
           M 471.00,179.67
           C 476.68,179.14 481.92,183.19 478.82,188.70
             476.65,192.55 470.14,195.71 466.00,197.05
             463.05,197.65 459.02,198.47 456.09,197.05
             451.81,195.50 448.16,188.42 451.60,184.43
             454.68,180.86 459.13,182.82 463.00,182.30
             465.61,181.95 468.45,180.52 471.00,179.67 Z
           M 792.00,311.00
           C 792.00,311.00 815.00,302.58 815.00,302.58
             815.00,302.58 877.00,280.31 877.00,280.31
             877.00,280.31 1006.00,234.31 1006.00,234.31
             1006.00,234.31 1032.00,224.66 1032.00,224.66
             1032.00,224.66 1047.00,219.33 1047.00,219.33
             1047.00,219.33 1088.00,205.46 1088.00,205.46
             1097.39,203.78 1104.48,207.56 1107.21,217.00
             1108.14,220.20 1108.03,223.69 1108.00,227.00
             1108.00,227.00 1103.44,260.00 1103.44,260.00
             1103.44,260.00 1102.68,268.00 1102.68,268.00
             1102.68,268.00 1096.29,308.00 1096.29,308.00
             1096.29,308.00 1083.43,394.00 1083.43,394.00
             1083.43,394.00 1072.75,467.00 1072.75,467.00
             1072.75,467.00 1063.61,524.00 1063.61,524.00
             1062.84,528.36 1062.23,540.53 1058.35,542.96
             1055.88,544.51 1052.87,542.30 1051.00,540.77
             1047.37,537.81 1040.29,530.17 1037.00,526.42
             1037.00,526.42 1014.09,502.01 1014.09,502.01
             1014.09,502.01 988.99,475.00 988.99,475.00
             988.99,475.00 978.00,463.06 978.00,463.06
             976.80,461.73 975.26,459.70 973.20,460.34
             971.09,460.99 961.80,472.58 959.73,475.00
             959.73,475.00 926.00,512.00 926.00,512.00
             926.00,512.00 886.00,554.00 886.00,554.00
             886.00,554.00 868.96,570.09 868.96,570.09
             868.96,570.09 854.01,584.91 854.01,584.91
             854.01,584.91 789.00,642.73 789.00,642.73
             709.64,709.84 622.57,767.89 528.00,811.31
             480.98,832.90 443.16,848.16 393.00,861.64
             393.00,861.64 351.00,871.58 351.00,871.58
             329.69,875.43 308.55,877.61 287.00,879.09
             287.00,879.09 265.00,880.88 265.00,880.88
             265.00,880.88 249.00,880.04 249.00,880.04
             249.00,880.04 236.00,880.04 236.00,880.04
             236.00,880.04 226.00,879.09 226.00,879.09
             226.00,879.09 198.00,876.13 198.00,876.13
             131.96,866.65 64.53,837.29 31.31,776.00
             12.63,741.55 6.55,701.76 7.00,663.00
             7.00,663.00 7.91,653.00 7.91,653.00
             7.91,653.00 9.72,629.00 9.72,629.00
             10.33,624.02 9.88,619.17 13.00,615.00
             13.00,615.00 17.49,637.00 17.49,637.00
             21.92,657.74 26.17,678.31 34.42,698.00
             41.45,714.76 50.02,730.92 61.61,745.00
             87.91,776.95 128.50,793.97 169.00,797.83
             169.00,797.83 192.00,799.00 192.00,799.00
             192.00,799.00 214.00,798.00 214.00,798.00
             226.57,797.85 258.74,792.03 272.00,789.28
             305.83,782.28 330.47,775.54 363.00,763.57
             363.00,763.57 442.00,729.42 442.00,729.42
             468.46,717.92 494.04,704.03 519.00,689.58
             549.46,671.94 579.35,652.30 608.00,631.86
             637.64,610.71 683.40,574.46 710.00,550.07
             736.46,525.82 762.15,500.95 786.96,475.00
             786.96,475.00 804.09,456.00 804.09,456.00
             804.09,456.00 838.42,418.00 838.42,418.00
             838.42,418.00 867.61,384.00 867.61,384.00
             869.70,381.43 876.37,374.41 875.98,371.18
             875.70,368.92 872.72,367.17 871.00,366.00
             871.00,366.00 855.00,355.14 855.00,355.14
             855.00,355.14 818.00,329.67 818.00,329.67
             818.00,329.67 792.00,311.00 792.00,311.00 Z
           M 515.00,254.00
           C 513.15,253.25 509.14,251.92 508.03,250.30
             508.03,250.30 505.12,237.00 505.12,237.00
             504.48,228.28 510.41,226.60 516.81,231.57
             520.77,234.65 518.45,235.97 518.86,240.00
             519.00,241.40 521.00,247.56 521.61,249.00
             524.70,256.29 531.26,257.81 532.72,265.00
             534.89,275.58 528.44,274.85 521.00,276.51
             514.40,277.99 513.20,280.02 506.00,278.00
             513.00,267.59 510.52,264.69 515.00,254.00 Z
           M 494.21,252.03
           C 499.74,250.16 506.20,253.08 504.36,259.00
             503.15,262.91 495.07,270.33 491.02,271.29
             486.89,272.27 485.86,269.51 486.63,266.00
             487.66,261.26 490.56,255.16 494.21,252.03 Z
           M 310.95,277.04
           C 311.47,277.12 312.11,276.70 313.69,277.71
             316.22,279.66 320.17,292.09 313.69,294.16
             310.50,295.27 300.63,291.12 300.63,286.96
             300.63,282.54 307.36,278.36 310.95,277.04 Z
           M 686.94,302.66
           C 682.49,304.29 678.76,308.41 675.00,308.24
             670.71,308.05 667.51,303.19 663.02,303.37
             656.34,303.64 653.16,318.63 653.02,324.00
             652.88,328.94 653.91,336.17 661.00,334.30
             664.72,333.32 667.70,328.35 673.00,327.43
             676.92,326.75 681.28,329.28 685.00,330.48
             690.12,332.14 692.77,332.01 698.00,332.00
             702.28,331.99 712.18,332.15 710.16,325.01
             708.43,318.92 698.33,317.44 693.51,310.96
             690.31,306.65 692.33,303.10 686.94,302.66 Z
           M 162.00,439.00
           C 164.18,435.33 165.87,434.88 170.00,434.10
             181.52,431.91 188.35,440.13 197.00,446.36
             199.73,448.32 206.37,451.31 207.34,454.17
             208.35,457.10 205.98,459.26 203.11,458.35
             200.86,457.64 199.77,455.33 197.74,454.17
             195.63,452.96 193.34,453.06 191.00,453.00
             188.35,447.79 186.53,448.32 182.00,445.44
             170.88,438.38 175.96,439.00 162.00,439.00 Z
           M 211.00,462.00
           C 211.60,459.80 212.40,456.35 214.50,455.06
             218.12,452.85 225.47,457.50 228.00,460.00
             221.53,462.69 217.81,462.00 211.00,462.00 Z
           M 186.00,461.00
           C 186.00,461.00 190.00,460.00 190.00,460.00
             188.37,461.83 188.34,461.76 186.00,461.00 Z
           M 368.00,898.00
           C 368.00,898.00 410.00,887.09 410.00,887.09
             410.00,887.09 445.00,876.26 445.00,876.26
             445.00,876.26 479.00,864.13 479.00,864.13
             481.16,863.93 483.77,864.00 486.00,864.13
             486.00,864.13 513.00,864.13 513.00,864.13
             530.00,863.80 558.11,858.30 575.00,854.33
             620.08,843.74 654.17,830.34 694.00,806.45
             694.00,806.45 722.00,788.11 722.00,788.11
             752.21,765.45 779.40,739.04 802.35,709.00
             812.25,696.03 821.16,681.99 829.55,668.00
             829.55,668.00 843.49,644.01 843.49,644.01
             843.49,644.01 880.00,607.00 880.00,607.00
             880.00,607.00 899.00,588.04 899.00,588.04
             899.00,588.04 910.91,577.04 910.91,577.04
             916.57,571.21 922.80,562.40 930.00,559.00
             930.00,559.00 927.26,572.00 927.26,572.00
             927.26,572.00 914.31,617.00 914.31,617.00
             902.74,650.13 886.29,682.53 867.31,712.00
             806.80,805.93 710.41,876.07 602.00,903.53
             572.50,911.00 545.28,915.01 515.00,917.09
             515.00,917.09 503.00,918.00 503.00,918.00
             503.00,918.00 473.00,918.00 473.00,918.00
             473.00,918.00 453.00,916.17 453.00,916.17
             433.30,914.28 414.24,911.69 395.00,906.73
             387.30,904.75 374.25,902.47 368.00,898.00 Z" />
</svg>
